<svg width="22" height="23" viewBox="0 0 22 23" fill="none" xmlns="http://www.w3.org/2000/svg">
<path d="M16.5 4L17.7154 7.28459L21 8.5L17.7154 9.71541L16.5 13L15.2846 9.71541L12 8.5L15.2846 7.28459L16.5 4Z" fill="#9887FF"/>
<path d="M19.8641 17.3973C19.681 17.4073 19.5081 17.4073 19.325 17.4073C16.3652 17.4073 13.5784 16.2788 11.4831 14.2215C9.38789 12.1641 8.23856 9.4277 8.23856 6.52149C8.23856 4.86366 8.61489 3.26574 9.31669 1.81763C9.63199 1.17846 10.0083 0.569257 10.4457 0C9.67268 0.0798958 8.93019 0.239686 8.20804 0.4594C3.44799 1.93747 0 6.30178 0 11.465C0 17.8367 5.25844 23 11.7476 23C15.338 23 18.5418 21.4221 20.6981 18.9353C21.1863 18.366 21.6338 17.7469 22 17.0877C21.3084 17.2575 20.5964 17.3673 19.8641 17.3973Z" fill="#9887FF"/>
</svg>
